<svg xmlns="http://www.w3.org/2000/svg" version="1.1" xmlns:xlink="http://www.w3.org/1999/xlink" xmlns:svgjs="http://svgjs.dev/svgjs" width="1440" height="560" preserveAspectRatio="none" viewBox="0 0 1440 560"><g mask="url(&quot;#SvgjsMask1000&quot;)" fill="none"><rect width="1440" height="560" x="0" y="0" fill="#1e3266"></rect><path d="M1488 560L0 560 L0 352.55Q28.75 309.3, 72 338.05Q107.61 253.66, 192 289.28Q240.38 265.65, 264 314.03Q313.89 291.92, 336 341.81Q379.23 313.04, 408 356.28Q413.82 290.1, 480 295.91Q533.85 229.75, 600 283.6Q685.23 248.83, 720 334.05Q742.22 284.27, 792 306.49Q845.13 239.63, 912 292.76Q977.68 286.44, 984 352.13Q1003.76 299.89, 1056 319.66Q1084.74 276.4, 1128 305.14Q1180.66 237.81, 1248 290.47Q1330.3 252.76, 1368 335.06Q1436.79 283.85, 1488 352.63z" fill="#182f5d"></path><path d="M1464 560L0 560 L0 434.83Q38.32 401.15, 72 439.48Q108.89 356.38, 192 393.27Q245.88 327.15, 312 381.04Q366.63 363.68, 384 418.31Q433.91 348.22, 504 398.13Q525.02 347.15, 576 368.18Q642.27 314.45, 696 380.72Q786.69 351.42, 816 442.11Q831.77 337.88, 936 353.65Q979.52 325.17, 1008 368.7Q1052.99 341.69, 1080 386.68Q1124.28 310.96, 1200 355.24Q1260.68 343.93, 1272 404.61Q1321.93 334.55, 1392 384.48Q1418.43 338.91, 1464 365.34z" fill="#25467d"></path><path d="M1536 560L0 560 L0 481.97Q38.24 400.21, 120 438.44Q147.35 393.79, 192 421.14Q270.19 379.33, 312 457.52Q359.59 433.11, 384 480.69Q437.82 462.51, 456 516.34Q482.02 470.36, 528 496.38Q582.84 431.22, 648 486.05Q677.97 396.02, 768 426Q814.86 400.86, 840 447.71Q895.86 431.56, 912 487.42Q954.53 457.95, 984 500.48Q1051.78 448.26, 1104 516.05Q1107.67 447.72, 1176 451.39Q1224.83 380.22, 1296 429.04Q1381.45 394.5, 1416 479.95Q1482.97 426.92, 1536 493.89z" fill="#356cb1"></path><path d="M1536 560L0 560 L0 561.19Q36.02 477.22, 120 513.24Q189.59 462.83, 240 532.42Q326.02 498.44, 360 584.46Q381.6 534.06, 432 555.66Q453.11 504.77, 504 525.88Q551.25 453.13, 624 500.38Q703.52 459.9, 744 539.42Q794.57 517.99, 816 568.56Q828.82 509.38, 888 522.2Q929.18 491.38, 960 532.56Q1038 490.56, 1080 568.56Q1109.02 525.58, 1152 554.6Q1200.52 483.12, 1272 531.64Q1330.32 517.96, 1344 576.29Q1344.1 504.39, 1416 504.49Q1469.81 438.3, 1536 492.11z" fill="white"></path></g><defs><mask id="SvgjsMask1000"><rect width="1440" height="560" fill="#ffffff"></rect></mask></defs></svg>